<svg width="623" height="724" viewBox="0 0 623 724" fill="none" xmlns="http://www.w3.org/2000/svg">
<mask id="mask0_94_836" style="mask-type:alpha" maskUnits="userSpaceOnUse" x="0" y="0" width="623" height="724">
<rect x="0.5" y="0.5" width="622" height="723" fill="#FF74BD"/>
</mask>
<g mask="url(#mask0_94_836)">
<ellipse cx="171.564" cy="357.055" rx="171.564" ry="357.055" transform="matrix(0.707107 0.707107 -0.74114 0.671351 470.788 2.42578)" fill="black"/>
<mask id="mask1_94_836" style="mask-type:alpha" maskUnits="userSpaceOnUse" x="-52" y="-205" width="671" height="838">
<path d="M447.957 483.935C374.983 550.037 295.398 596.281 225.762 617.644C156.036 639.034 96.7115 635.371 63.712 602.372C55.4629 594.123 45.3312 579.073 34.5309 558.589C23.7438 538.129 12.3301 512.327 1.49376 482.636C-20.1795 423.254 -39.5241 348.372 -46.9361 269.663C-61.7623 112.223 -28.8314 -60.1585 128.159 -154.768C255.773 -201.147 344.206 -210.992 406.125 -198.797C467.967 -186.617 503.498 -152.423 525.297 -110.317C547.132 -68.1391 555.17 -18.055 561.935 25.8351C562.078 26.762 562.221 27.6863 562.362 28.6076C565.574 49.4646 568.56 68.8547 572.698 85.1388C577.011 102.111 582.623 115.92 591.23 124.527C624.23 157.527 625.142 214.1 599.25 279.325C573.392 344.465 520.931 417.832 447.957 483.935Z" fill="#D9D9D9" stroke="#D9D9D9" stroke-width="2.34423"/>
</mask>
<g mask="url(#mask1_94_836)">
<g filter="url(#filter0_iii_94_836)">
<path fill-rule="evenodd" clip-rule="evenodd" d="M464.316 96.4716C461.192 140.611 479.105 170.413 499.681 178.307C499.854 178.374 499.81 178.636 499.625 178.644C499.459 178.651 499.403 178.868 499.543 178.956C537.184 202.494 562.221 244.314 562.221 291.981V330.969C562.221 404.538 502.582 464.177 429.013 464.177H224.327C150.758 464.177 91.1188 404.538 91.1188 330.969V291.981C91.1188 218.412 150.758 158.773 224.327 158.773H265.411C275.311 158.773 281.478 148.034 277.002 139.203C260.51 106.667 249.58 69.4784 275.771 42.8561C304.388 13.767 362.869 40.5746 358.884 96.4716C357.187 120.268 360.91 140.221 368.024 154.025C369.59 157.064 372.824 158.773 376.243 158.773C383.986 158.773 388.828 150.385 385.235 143.525C367.681 110.003 354.629 70.6652 381.793 42.8561C410.207 13.767 468.273 40.5746 464.316 96.4716Z" fill="#049ADB"/>
</g>
<ellipse cx="247.308" cy="295.339" rx="187.99" ry="211.729" fill="#049ADB"/>
<rect x="112.81" y="128.093" width="251.508" height="334.322" rx="125.754" fill="#D9D9D9"/>
<rect x="156.438" y="185.837" width="164.25" height="218.333" rx="82.1251" fill="black"/>
<path d="M237.533 230.749C237.533 288.72 243.975 295.161 301.946 295.161C243.975 295.161 237.533 301.603 237.533 359.574C237.533 301.603 231.092 295.161 173.121 295.161C231.092 295.161 237.533 288.72 237.533 230.749Z" fill="#D9D9D9"/>
<path d="M462.586 281.603C462.586 276.771 466.503 272.855 471.334 272.855H524.233C529.064 272.855 532.981 276.771 532.981 281.603V309.135C532.981 328.574 517.222 344.332 497.784 344.332C478.345 344.332 462.586 328.574 462.586 309.135V281.603Z" fill="#D9D9D9"/>
<path d="M470.167 272.855H510.238V305.886C510.238 316.951 501.268 325.921 490.202 325.921C479.137 325.921 470.167 316.951 470.167 305.886V272.855Z" fill="black"/>
<path d="M485.855 281.287C485.855 294.004 487.268 295.417 499.985 295.417C487.268 295.417 485.855 296.83 485.855 309.547C485.855 296.83 484.442 295.417 471.725 295.417C484.442 295.417 485.855 294.004 485.855 281.287Z" fill="#D9D9D9"/>
<g filter="url(#filter1_ii_94_836)">
<path d="M426.375 671.921C396.564 610.703 320.767 489.906 313.914 479.667L337.587 465.209L482.317 637.613L426.375 671.921Z" fill="#049ADB"/>
</g>
<g filter="url(#filter2_b_94_836)">
<circle cx="225.772" cy="294.514" r="188.368" transform="rotate(-30 225.772 294.514)" fill="url(#paint0_radial_94_836)" fill-opacity="0.2"/>
</g>
<g filter="url(#filter3_iii_94_836)">
<path fill-rule="evenodd" clip-rule="evenodd" d="M337.693 488.365C444.754 426.553 481.436 289.655 419.624 182.594C357.812 75.5333 220.914 38.8515 113.853 100.663C6.79242 162.475 -29.8893 299.373 31.9223 406.434C93.7339 513.495 230.632 550.176 337.693 488.365ZM319.956 457.645C410.051 405.629 440.92 290.425 388.903 200.33C336.887 110.235 221.683 79.3659 131.588 131.382C41.493 183.399 10.6241 298.603 62.6405 388.698C114.657 478.793 229.861 509.661 319.956 457.645Z" fill="#049ADB"/>
</g>
<g filter="url(#filter4_dii_94_836)">
<path d="M310.957 504.583C324.605 490.941 367.185 463.62 377.194 476.753C388.648 491.783 376.662 502.154 365.031 510.519C374.29 504.414 384.615 500.824 392.297 515.496C400.849 531.83 372.808 531.661 358.217 547.059C374.091 543.62 387.566 529.393 396.3 545.545C405.035 561.697 387.202 576.285 377.194 581.56C365.897 621.904 316.053 625.178 296.4 571.738C288.822 551.132 296.4 519.134 310.957 504.583Z" fill="#049ADB"/>
</g>
<path d="M480.987 385.796C478.971 397.109 457.471 397.578 446.973 396.399L436.233 393.219C433.165 392.31 432.965 384.531 433.249 380.756C433.972 382.073 436.761 384.112 442.138 381.734C448.859 378.762 452.145 364.848 462.252 364.533C472.358 364.217 483.506 371.654 480.987 385.796Z" fill="url(#paint1_radial_94_836)"/>
<g filter="url(#filter5_d_94_836)">
<path d="M475.692 404.604C472.319 398.266 456.158 393.312 448.01 393.124C443.836 392.445 437.754 393.605 437.81 399.949C437.85 404.595 447.198 419.139 460.774 423.159C474.35 427.18 481.244 415.037 475.692 404.604Z" fill="url(#paint2_radial_94_836)" shape-rendering="crispEdges"/>
</g>
</g>
</g>
<defs>
<filter id="filter0_iii_94_836" x="74.4371" y="16.8642" width="500.616" height="453.729" filterUnits="userSpaceOnUse" color-interpolation-filters="sRGB">
<feFlood flood-opacity="0" result="BackgroundImageFix"/>
<feBlend mode="normal" in="SourceGraphic" in2="BackgroundImageFix" result="shape"/>
<feColorMatrix in="SourceAlpha" type="matrix" values="0 0 0 0 0 0 0 0 0 0 0 0 0 0 0 0 0 0 127 0" result="hardAlpha"/>
<feOffset dx="-2.56641" dy="-14.1153"/>
<feGaussianBlur stdDeviation="8.98244"/>
<feComposite in2="hardAlpha" operator="arithmetic" k2="-1" k3="1"/>
<feColorMatrix type="matrix" values="0 0 0 0 0 0 0 0 0 0 0 0 0 0 0 0 0 0 0.25 0"/>
<feBlend mode="normal" in2="shape" result="effect1_innerShadow_94_836"/>
<feColorMatrix in="SourceAlpha" type="matrix" values="0 0 0 0 0 0 0 0 0 0 0 0 0 0 0 0 0 0 127 0" result="hardAlpha"/>
<feOffset dx="12.8321" dy="-1.2832"/>
<feGaussianBlur stdDeviation="8.34083"/>
<feComposite in2="hardAlpha" operator="arithmetic" k2="-1" k3="1"/>
<feColorMatrix type="matrix" values="0 0 0 0 0 0 0 0 0 0 0 0 0 0 0 0 0 0 0.34 0"/>
<feBlend mode="normal" in2="effect1_innerShadow_94_836" result="effect2_innerShadow_94_836"/>
<feColorMatrix in="SourceAlpha" type="matrix" values="0 0 0 0 0 0 0 0 0 0 0 0 0 0 0 0 0 0 127 0" result="hardAlpha"/>
<feOffset dx="-16.6817" dy="6.41603"/>
<feGaussianBlur stdDeviation="26.3057"/>
<feComposite in2="hardAlpha" operator="arithmetic" k2="-1" k3="1"/>
<feColorMatrix type="matrix" values="0 0 0 0 0.85098 0 0 0 0 0.85098 0 0 0 0 0.85098 0 0 0 0.62 0"/>
<feBlend mode="normal" in2="effect2_innerShadow_94_836" result="effect3_innerShadow_94_836"/>
</filter>
<filter id="filter1_ii_94_836" x="311.675" y="458.491" width="170.641" height="213.43" filterUnits="userSpaceOnUse" color-interpolation-filters="sRGB">
<feFlood flood-opacity="0" result="BackgroundImageFix"/>
<feBlend mode="normal" in="SourceGraphic" in2="BackgroundImageFix" result="shape"/>
<feColorMatrix in="SourceAlpha" type="matrix" values="0 0 0 0 0 0 0 0 0 0 0 0 0 0 0 0 0 0 127 0" result="hardAlpha"/>
<feOffset dx="-2.23922" dy="-8.95688"/>
<feGaussianBlur stdDeviation="3.35883"/>
<feComposite in2="hardAlpha" operator="arithmetic" k2="-1" k3="1"/>
<feColorMatrix type="matrix" values="0 0 0 0 0 0 0 0 0 0 0 0 0 0 0 0 0 0 0.25 0"/>
<feBlend mode="normal" in2="shape" result="effect1_innerShadow_94_836"/>
<feColorMatrix in="SourceAlpha" type="matrix" values="0 0 0 0 0 0 0 0 0 0 0 0 0 0 0 0 0 0 127 0" result="hardAlpha"/>
<feOffset dy="-4.47844"/>
<feGaussianBlur stdDeviation="2.23922"/>
<feComposite in2="hardAlpha" operator="arithmetic" k2="-1" k3="1"/>
<feColorMatrix type="matrix" values="0 0 0 0 0 0 0 0 0 0 0 0 0 0 0 0 0 0 0.25 0"/>
<feBlend mode="normal" in2="effect1_innerShadow_94_836" result="effect2_innerShadow_94_836"/>
</filter>
<filter id="filter2_b_94_836" x="34.8061" y="103.548" width="381.931" height="381.931" filterUnits="userSpaceOnUse" color-interpolation-filters="sRGB">
<feFlood flood-opacity="0" result="BackgroundImageFix"/>
<feGaussianBlur in="BackgroundImageFix" stdDeviation="1.2832"/>
<feComposite in2="SourceAlpha" operator="in" result="effect1_backgroundBlur_94_836"/>
<feBlend mode="normal" in="SourceGraphic" in2="effect1_backgroundBlur_94_836" result="shape"/>
</filter>
<filter id="filter3_iii_94_836" x="1.89612" y="59.0881" width="452.887" height="467.002" filterUnits="userSpaceOnUse" color-interpolation-filters="sRGB">
<feFlood flood-opacity="0" result="BackgroundImageFix"/>
<feBlend mode="normal" in="SourceGraphic" in2="BackgroundImageFix" result="shape"/>
<feColorMatrix in="SourceAlpha" type="matrix" values="0 0 0 0 0 0 0 0 0 0 0 0 0 0 0 0 0 0 127 0" result="hardAlpha"/>
<feOffset/>
<feGaussianBlur stdDeviation="4.98258"/>
<feComposite in2="hardAlpha" operator="arithmetic" k2="-1" k3="1"/>
<feColorMatrix type="matrix" values="0 0 0 0 0.827451 0 0 0 0 0.654902 0 0 0 0 1 0 0 0 1 0"/>
<feBlend mode="normal" in2="shape" result="effect1_innerShadow_94_836"/>
<feColorMatrix in="SourceAlpha" type="matrix" values="0 0 0 0 0 0 0 0 0 0 0 0 0 0 0 0 0 0 127 0" result="hardAlpha"/>
<feOffset dy="-11.5488"/>
<feGaussianBlur stdDeviation="8.34083"/>
<feComposite in2="hardAlpha" operator="arithmetic" k2="-1" k3="1"/>
<feColorMatrix type="matrix" values="0 0 0 0 0 0 0 0 0 0 0 0 0 0 0 0 0 0 0.43 0"/>
<feBlend mode="normal" in2="effect1_innerShadow_94_836" result="effect2_innerShadow_94_836"/>
<feColorMatrix in="SourceAlpha" type="matrix" values="0 0 0 0 0 0 0 0 0 0 0 0 0 0 0 0 0 0 127 0" result="hardAlpha"/>
<feOffset dx="5.13282" dy="24.3809"/>
<feGaussianBlur stdDeviation="3.84961"/>
<feComposite in2="hardAlpha" operator="arithmetic" k2="-1" k3="1"/>
<feColorMatrix type="matrix" values="0 0 0 0 0.85098 0 0 0 0 0.85098 0 0 0 0 0.85098 0 0 0 0.27 0"/>
<feBlend mode="normal" in2="effect2_innerShadow_94_836" result="effect3_innerShadow_94_836"/>
</filter>
<filter id="filter4_dii_94_836" x="284.433" y="464.318" width="130.887" height="165.508" filterUnits="userSpaceOnUse" color-interpolation-filters="sRGB">
<feFlood flood-opacity="0" result="BackgroundImageFix"/>
<feColorMatrix in="SourceAlpha" type="matrix" values="0 0 0 0 0 0 0 0 0 0 0 0 0 0 0 0 0 0 127 0" result="hardAlpha"/>
<feOffset dx="3.84961" dy="5.13282"/>
<feGaussianBlur stdDeviation="6.41603"/>
<feComposite in2="hardAlpha" operator="out"/>
<feColorMatrix type="matrix" values="0 0 0 0 0 0 0 0 0 0 0 0 0 0 0 0 0 0 0.25 0"/>
<feBlend mode="normal" in2="BackgroundImageFix" result="effect1_dropShadow_94_836"/>
<feBlend mode="normal" in="SourceGraphic" in2="effect1_dropShadow_94_836" result="shape"/>
<feColorMatrix in="SourceAlpha" type="matrix" values="0 0 0 0 0 0 0 0 0 0 0 0 0 0 0 0 0 0 127 0" result="hardAlpha"/>
<feOffset dx="8.98244" dy="-8.95688"/>
<feGaussianBlur stdDeviation="10.2656"/>
<feComposite in2="hardAlpha" operator="arithmetic" k2="-1" k3="1"/>
<feColorMatrix type="matrix" values="0 0 0 0 0 0 0 0 0 0 0 0 0 0 0 0 0 0 0.25 0"/>
<feBlend mode="normal" in2="shape" result="effect2_innerShadow_94_836"/>
<feColorMatrix in="SourceAlpha" type="matrix" values="0 0 0 0 0 0 0 0 0 0 0 0 0 0 0 0 0 0 127 0" result="hardAlpha"/>
<feOffset dx="-5.13282" dy="-2.56641"/>
<feGaussianBlur stdDeviation="2.23922"/>
<feComposite in2="hardAlpha" operator="arithmetic" k2="-1" k3="1"/>
<feColorMatrix type="matrix" values="0 0 0 0 0 0 0 0 0 0 0 0 0 0 0 0 0 0 0.25 0"/>
<feBlend mode="normal" in2="effect2_innerShadow_94_836" result="effect3_innerShadow_94_836"/>
</filter>
<filter id="filter5_d_94_836" x="433.96" y="392.953" width="52.6418" height="45.1099" filterUnits="userSpaceOnUse" color-interpolation-filters="sRGB">
<feFlood flood-opacity="0" result="BackgroundImageFix"/>
<feColorMatrix in="SourceAlpha" type="matrix" values="0 0 0 0 0 0 0 0 0 0 0 0 0 0 0 0 0 0 127 0" result="hardAlpha"/>
<feOffset dx="2.56641" dy="7.69923"/>
<feGaussianBlur stdDeviation="3.20801"/>
<feComposite in2="hardAlpha" operator="out"/>
<feColorMatrix type="matrix" values="0 0 0 0 0 0 0 0 0 0 0 0 0 0 0 0 0 0 0.14 0"/>
<feBlend mode="normal" in2="BackgroundImageFix" result="effect1_dropShadow_94_836"/>
<feBlend mode="normal" in="SourceGraphic" in2="effect1_dropShadow_94_836" result="shape"/>
</filter>
<radialGradient id="paint0_radial_94_836" cx="0" cy="0" r="1" gradientUnits="userSpaceOnUse" gradientTransform="translate(149.935 244.976) rotate(57.1681) scale(283.132)">
<stop stop-color="#D9D9D9"/>
<stop offset="0.721875" stop-color="#049ADB"/>
<stop offset="0.961458" stop-color="#D9D9D9"/>
</radialGradient>
<radialGradient id="paint1_radial_94_836" cx="0" cy="0" r="1" gradientUnits="userSpaceOnUse" gradientTransform="translate(475.117 377.441) rotate(153.218) scale(43.9579 51.259)">
<stop stop-color="#D9D9D9"/>
<stop offset="0.588542" stop-color="#049ADB" stop-opacity="0"/>
<stop offset="0.958333" stop-color="#049ADB"/>
</radialGradient>
<radialGradient id="paint2_radial_94_836" cx="0" cy="0" r="1" gradientUnits="userSpaceOnUse" gradientTransform="translate(473.759 415.324) rotate(-160.856) scale(34.6466 33.6315)">
<stop stop-color="#D9D9D9"/>
<stop offset="0.729167" stop-color="#049ADB" stop-opacity="0"/>
</radialGradient>
</defs>
</svg>
