<svg width="1519" height="529" viewBox="0 0 1519 529" fill="none" xmlns="http://www.w3.org/2000/svg">
<mask id="mask0_94_937" style="mask-type:alpha" maskUnits="userSpaceOnUse" x="0" y="0" width="1519" height="529">
<rect width="1519" height="528.198" fill="#FF74BD"/>
</mask>
<g mask="url(#mask0_94_937)">
<path d="M235.599 183.336V144.562H34.5228V384.754H235.599V345.98H81.532V282.844H224.618V251.619H81.532V183.336H235.599Z" fill="#D9D9D9"/>
<path d="M421.507 144.562V305.148C421.507 338.432 400.233 359.706 367.292 359.706C334.008 359.706 309.302 343.579 309.302 305.148V144.562H258.176V298.285C258.176 345.294 283.567 389.901 365.576 389.901C445.183 389.901 472.634 342.892 472.634 298.285V144.562H421.507Z" fill="#D9D9D9"/>
<path d="M514.493 384.754H561.502V289.707H683.314L649.344 385.441H749.196V346.324H710.422C717.628 302.403 724.49 272.893 692.579 270.834V259.511C723.804 254.707 746.794 236.864 746.794 203.237C746.794 157.944 705.275 144.905 657.923 144.905H514.493V384.754ZM561.502 182.992H657.58C680.226 182.992 700.128 194.316 700.128 218.335C700.128 241.668 680.226 254.021 656.893 253.678L561.502 252.991V182.992Z" fill="#D9D9D9"/>
<path d="M931.635 144.562V305.148C931.635 338.432 910.361 359.706 877.42 359.706C844.136 359.706 819.431 343.579 819.431 305.148V144.562H768.304V298.285C768.304 345.294 793.696 389.901 875.705 389.901C955.311 389.901 982.762 342.892 982.762 298.285V144.562H931.635Z" fill="#D9D9D9"/>
<path d="M1219.52 273.579C1213 263.629 1190.7 257.795 1165.65 257.795C1153.64 257.795 1140.94 259.168 1128.93 262.256C1118.98 265.001 1104.91 270.491 1096.68 272.893L1097.02 261.913C1124.13 256.423 1156.73 247.158 1174.23 226.57L1261.04 144.562H1203.39L1088.44 249.56H1071.63V144.562H1024.62V384.754H1071.63V289.707H1193.44L1159.47 385.441H1259.32V346.324H1220.55C1226.73 305.834 1235.31 281.471 1219.52 273.579Z" fill="#D9D9D9"/>
<path d="M1341.01 372.933C1276.12 431.712 1205.35 472.835 1143.43 491.832C1081.43 510.852 1028.66 507.601 999.295 478.242C969.936 448.882 969.132 398.557 992.155 340.558C1015.15 282.631 1061.8 217.391 1126.69 158.611C1191.58 99.8323 1262.35 58.7097 1324.27 39.713C1386.28 20.6925 1439.05 23.9431 1468.41 53.303C1497.77 82.663 1498.57 132.987 1475.55 190.987C1452.55 248.913 1405.9 314.154 1341.01 372.933Z" stroke="#D9D9D9" stroke-width="2"/>
<mask id="mask1_94_937" style="mask-type:alpha" maskUnits="userSpaceOnUse" x="974" y="26" width="519" height="479">
<ellipse cx="152.548" cy="317.48" rx="152.548" ry="317.48" transform="matrix(0.707107 0.707107 -0.74114 0.671351 1361.28 -55.2363)" fill="#FF74BD"/>
</mask>
<g mask="url(#mask1_94_937)">
<path d="M1400.11 138.091C1319.13 138.091 1255.31 193.336 1255.31 263.678C1255.31 335.393 1317.41 388.921 1400.11 388.921C1483.15 388.921 1545.25 335.393 1545.25 263.678C1544.91 191.62 1483.15 138.091 1400.11 138.091ZM1400.11 352.549C1349.32 352.549 1308.49 320.981 1308.49 265.05C1308.49 209.806 1349.32 175.493 1402.17 176.179C1456.72 176.865 1493.1 209.12 1493.1 265.05C1493.1 320.295 1451.58 352.549 1400.11 352.549Z" fill="#D9D9D9"/>
</g>
<path d="M1451.92 348.736L1446.7 350.244L1446.29 349.067L1451.3 347.007C1455.75 345.168 1465.75 343.181 1465.75 334.61C1465.75 329.791 1461.85 326.002 1454.31 326.002C1445.93 326.002 1441.95 329.717 1441.95 335.603H1447.03C1447.03 332.219 1449.35 330.232 1454.39 330.232C1458.8 330.232 1460.71 332.145 1460.71 334.794C1460.71 343.365 1441.66 342.703 1441.66 350.612V352.966H1465.83V348.736H1451.92ZM1495.53 339.981C1495.53 332.734 1490.82 326.48 1481.78 326.48C1472.8 326.48 1468.05 332.734 1468.05 340.054C1468.05 347.301 1472.8 353.555 1481.78 353.555C1489.43 353.555 1495.53 348.662 1495.53 339.981ZM1481.78 349.324C1476.33 349.324 1473.13 345.352 1473.13 340.018C1473.13 334.684 1476.33 330.711 1481.78 330.711C1487.26 330.711 1490.46 334.684 1490.46 340.018C1490.46 345.352 1487.26 349.324 1481.78 349.324ZM1451.92 380.736L1446.7 382.244L1446.29 381.067L1451.3 379.007C1455.75 377.168 1465.75 375.181 1465.75 366.61C1465.75 361.791 1461.85 358.002 1454.31 358.002C1445.93 358.002 1441.95 361.717 1441.95 367.603H1447.03C1447.03 364.219 1449.35 362.232 1454.39 362.232C1458.8 362.232 1460.71 364.145 1460.71 366.794C1460.71 375.365 1441.66 374.703 1441.66 382.612V384.966H1465.83V380.736H1451.92ZM1488.73 372.606V371.355C1492.33 371.282 1494.14 369.185 1494.14 366.463C1494.14 360.651 1488.21 358.407 1482.62 358.407C1476.18 358.407 1470.3 361.018 1470.3 368.008H1475.37C1475.34 364.292 1479.24 362.637 1482.69 362.637C1485.78 362.637 1489.06 363.704 1489.06 366.684C1489.06 369.148 1487.48 370.509 1484.61 370.509H1479.2V373.452H1484.61C1487.77 373.452 1489.06 374.593 1489.06 377.241C1489.06 380.294 1485.9 381.324 1482.73 381.324C1479.35 381.324 1475.34 379.596 1475.37 375.99H1470.3C1470.3 382.906 1476.29 385.555 1482.66 385.555C1488.25 385.555 1494.14 383.348 1494.14 377.462C1494.14 374.556 1492.52 372.68 1488.73 372.606Z" fill="#D9D9D9"/>
</g>
</svg>
