<svg width="237" height="270" viewBox="0 0 237 270" fill="none" xmlns="http://www.w3.org/2000/svg">
<mask id="mask0_94_738" style="mask-type:alpha" maskUnits="userSpaceOnUse" x="0" y="0" width="237" height="270">
<rect width="237" height="270" fill="#FF74BD"/>
</mask>
<g mask="url(#mask0_94_738)">
<ellipse cx="68.6368" cy="142.845" rx="68.6368" ry="142.845" transform="matrix(0.707107 0.707107 -0.74114 0.671351 176.255 14.9595)" fill="black"/>
<mask id="mask1_94_738" style="mask-type:alpha" maskUnits="userSpaceOnUse" x="-18" y="34" width="254" height="233">
<path d="M167.454 207.926C108.984 260.89 39.856 282.096 13.0517 255.292C-13.7526 228.488 -41.2444 118.669 17.2251 65.7055C75.6946 12.7417 197.984 36.6889 224.788 63.4932C251.593 90.2975 225.923 154.962 167.454 207.926Z" fill="black"/>
</mask>
<g mask="url(#mask1_94_738)">
<mask id="mask2_94_738" style="mask-type:alpha" maskUnits="userSpaceOnUse" x="4" y="85" width="226" height="169">
<path d="M172.611 85.8057H58.7434C54.15 85.8057 49.7601 87.7013 46.6105 91.0448L9.49409 130.446C3.29423 137.028 3.47222 147.352 9.89528 153.716L105.676 248.616C112.173 255.053 122.643 255.053 129.139 248.616L224.515 154.118C231.097 147.596 231.097 136.958 224.515 130.436L184.342 90.6334C181.221 87.5407 177.005 85.8057 172.611 85.8057Z" fill="#049ADB"/>
</mask>
<g mask="url(#mask2_94_738)">
<path d="M179.47 85.8057H51.5458L-1.65027 142.277L117.408 260.239L236.466 142.277L179.47 85.8057Z" fill="#049ADB"/>
<g opacity="0.8" filter="url(#filter0_i_94_738)">
<path d="M179.47 142.277H51.5458H-1.65027L117.408 260.239L236.466 142.277H179.47Z" fill="url(#paint0_linear_94_738)"/>
</g>
<g opacity="0.64" filter="url(#filter1_i_94_738)">
<path d="M166.26 142.277H74.5842L92.2331 193.66L117.407 260.239L144.69 193.66L166.26 142.277Z" fill="url(#paint1_linear_94_738)"/>
</g>
<g opacity="0.56" filter="url(#filter2_i_94_738)">
<path d="M74.5841 142.487L166.26 142.487L144.69 115.711L120.667 85.8058L97.6258 115.711L74.5841 142.487Z" fill="url(#paint2_linear_94_738)"/>
</g>
<g opacity="0.56" filter="url(#filter3_i_94_738)">
<path d="M120.667 85.8057H51.0522L61.3474 113.75L74.5841 142.674L100.567 111.789L120.667 85.8057Z" fill="url(#paint3_linear_94_738)"/>
</g>
<g opacity="0.56" filter="url(#filter4_i_94_738)">
<path d="M120.667 85.8057H179.497L173.614 112.279L166.26 142.674L141.258 111.299L120.667 85.8057Z" fill="url(#paint4_linear_94_738)"/>
</g>
<g opacity="0.56" filter="url(#filter5_i_94_738)">
<path d="M166.26 142.487L236.366 142.487L211.363 117.672L179.497 85.8058L172.634 115.711L166.26 142.487Z" fill="url(#paint5_linear_94_738)"/>
</g>
<g opacity="0.56" filter="url(#filter6_i_94_738)">
<path d="M74.5841 142.487L-1.89447 142.487L22.1277 117.182L51.5425 85.8058L62.8182 117.182L74.5841 142.487Z" fill="url(#paint6_linear_94_738)"/>
</g>
</g>
</g>
<g filter="url(#filter7_f_94_738)">
<path d="M72.8164 111.685C72.8164 140.632 76.0328 143.848 104.98 143.848C76.0328 143.848 72.8164 147.064 72.8164 176.011C72.8164 147.064 69.6001 143.848 40.653 143.848C69.6001 143.848 72.8164 140.632 72.8164 111.685Z" fill="#D9D9D9"/>
</g>
<g opacity="0.8" filter="url(#filter8_f_94_738)">
<path d="M179.304 74.04C179.304 87.9855 180.854 89.535 194.799 89.535C180.854 89.535 179.304 91.0845 179.304 105.03C179.304 91.0845 177.755 89.535 163.809 89.535C177.755 89.535 179.304 87.9855 179.304 74.04Z" fill="#D9D9D9"/>
</g>
<g opacity="0.8" filter="url(#filter9_f_94_738)">
<path d="M104.787 206.407C104.787 220.352 106.336 221.902 120.282 221.902C106.336 221.902 104.787 223.451 104.787 237.397C104.787 223.451 103.237 221.902 89.2918 221.902C103.237 221.902 104.787 220.352 104.787 206.407Z" fill="#D9D9D9"/>
</g>
</g>
<defs>
<filter id="filter0_i_94_738" x="-6.55274" y="131.491" width="243.018" height="128.748" filterUnits="userSpaceOnUse" color-interpolation-filters="sRGB">
<feFlood flood-opacity="0" result="BackgroundImageFix"/>
<feBlend mode="normal" in="SourceGraphic" in2="BackgroundImageFix" result="shape"/>
<feColorMatrix in="SourceAlpha" type="matrix" values="0 0 0 0 0 0 0 0 0 0 0 0 0 0 0 0 0 0 127 0" result="hardAlpha"/>
<feOffset dx="-4.90248" dy="-10.7854"/>
<feGaussianBlur stdDeviation="13.2367"/>
<feComposite in2="hardAlpha" operator="arithmetic" k2="-1" k3="1"/>
<feColorMatrix type="matrix" values="0 0 0 0 0.85098 0 0 0 0 0.85098 0 0 0 0 0.85098 0 0 0 1 0"/>
<feBlend mode="normal" in2="shape" result="effect1_innerShadow_94_738"/>
</filter>
<filter id="filter1_i_94_738" x="65.7597" y="132.472" width="100.501" height="127.767" filterUnits="userSpaceOnUse" color-interpolation-filters="sRGB">
<feFlood flood-opacity="0" result="BackgroundImageFix"/>
<feBlend mode="normal" in="SourceGraphic" in2="BackgroundImageFix" result="shape"/>
<feColorMatrix in="SourceAlpha" type="matrix" values="0 0 0 0 0 0 0 0 0 0 0 0 0 0 0 0 0 0 127 0" result="hardAlpha"/>
<feOffset dx="-8.82446" dy="-9.80495"/>
<feGaussianBlur stdDeviation="13.2367"/>
<feComposite in2="hardAlpha" operator="arithmetic" k2="-1" k3="1"/>
<feColorMatrix type="matrix" values="0 0 0 0 0.85098 0 0 0 0 0.85098 0 0 0 0 0.85098 0 0 0 1 0"/>
<feBlend mode="normal" in2="shape" result="effect1_innerShadow_94_738"/>
</filter>
<filter id="filter2_i_94_738" x="65.7597" y="76.0007" width="100.501" height="66.4866" filterUnits="userSpaceOnUse" color-interpolation-filters="sRGB">
<feFlood flood-opacity="0" result="BackgroundImageFix"/>
<feBlend mode="normal" in="SourceGraphic" in2="BackgroundImageFix" result="shape"/>
<feColorMatrix in="SourceAlpha" type="matrix" values="0 0 0 0 0 0 0 0 0 0 0 0 0 0 0 0 0 0 127 0" result="hardAlpha"/>
<feOffset dx="-8.82446" dy="-9.80495"/>
<feGaussianBlur stdDeviation="13.2367"/>
<feComposite in2="hardAlpha" operator="arithmetic" k2="-1" k3="1"/>
<feColorMatrix type="matrix" values="0 0 0 0 0.85098 0 0 0 0 0.85098 0 0 0 0 0.85098 0 0 0 1 0"/>
<feBlend mode="normal" in2="shape" result="effect1_innerShadow_94_738"/>
</filter>
<filter id="filter3_i_94_738" x="42.2278" y="76.0007" width="78.4396" height="66.6736" filterUnits="userSpaceOnUse" color-interpolation-filters="sRGB">
<feFlood flood-opacity="0" result="BackgroundImageFix"/>
<feBlend mode="normal" in="SourceGraphic" in2="BackgroundImageFix" result="shape"/>
<feColorMatrix in="SourceAlpha" type="matrix" values="0 0 0 0 0 0 0 0 0 0 0 0 0 0 0 0 0 0 127 0" result="hardAlpha"/>
<feOffset dx="-8.82446" dy="-9.80495"/>
<feGaussianBlur stdDeviation="13.2367"/>
<feComposite in2="hardAlpha" operator="arithmetic" k2="-1" k3="1"/>
<feColorMatrix type="matrix" values="0 0 0 0 0.85098 0 0 0 0 0.85098 0 0 0 0 0.85098 0 0 0 1 0"/>
<feBlend mode="normal" in2="shape" result="effect1_innerShadow_94_738"/>
</filter>
<filter id="filter4_i_94_738" x="111.843" y="76.0007" width="67.6542" height="66.6736" filterUnits="userSpaceOnUse" color-interpolation-filters="sRGB">
<feFlood flood-opacity="0" result="BackgroundImageFix"/>
<feBlend mode="normal" in="SourceGraphic" in2="BackgroundImageFix" result="shape"/>
<feColorMatrix in="SourceAlpha" type="matrix" values="0 0 0 0 0 0 0 0 0 0 0 0 0 0 0 0 0 0 127 0" result="hardAlpha"/>
<feOffset dx="-8.82446" dy="-9.80495"/>
<feGaussianBlur stdDeviation="13.2367"/>
<feComposite in2="hardAlpha" operator="arithmetic" k2="-1" k3="1"/>
<feColorMatrix type="matrix" values="0 0 0 0 0.85098 0 0 0 0 0.85098 0 0 0 0 0.85098 0 0 0 1 0"/>
<feBlend mode="normal" in2="shape" result="effect1_innerShadow_94_738"/>
</filter>
<filter id="filter5_i_94_738" x="157.436" y="76.0007" width="78.9299" height="66.4866" filterUnits="userSpaceOnUse" color-interpolation-filters="sRGB">
<feFlood flood-opacity="0" result="BackgroundImageFix"/>
<feBlend mode="normal" in="SourceGraphic" in2="BackgroundImageFix" result="shape"/>
<feColorMatrix in="SourceAlpha" type="matrix" values="0 0 0 0 0 0 0 0 0 0 0 0 0 0 0 0 0 0 127 0" result="hardAlpha"/>
<feOffset dx="-8.82446" dy="-9.80495"/>
<feGaussianBlur stdDeviation="13.2367"/>
<feComposite in2="hardAlpha" operator="arithmetic" k2="-1" k3="1"/>
<feColorMatrix type="matrix" values="0 0 0 0 0.85098 0 0 0 0 0.85098 0 0 0 0 0.85098 0 0 0 1 0"/>
<feBlend mode="normal" in2="shape" result="effect1_innerShadow_94_738"/>
</filter>
<filter id="filter6_i_94_738" x="-10.7189" y="76.0007" width="85.3031" height="66.4866" filterUnits="userSpaceOnUse" color-interpolation-filters="sRGB">
<feFlood flood-opacity="0" result="BackgroundImageFix"/>
<feBlend mode="normal" in="SourceGraphic" in2="BackgroundImageFix" result="shape"/>
<feColorMatrix in="SourceAlpha" type="matrix" values="0 0 0 0 0 0 0 0 0 0 0 0 0 0 0 0 0 0 127 0" result="hardAlpha"/>
<feOffset dx="-8.82446" dy="-9.80495"/>
<feGaussianBlur stdDeviation="13.2367"/>
<feComposite in2="hardAlpha" operator="arithmetic" k2="-1" k3="1"/>
<feColorMatrix type="matrix" values="0 0 0 0 0.85098 0 0 0 0 0.85098 0 0 0 0 0.85098 0 0 0 1 0"/>
<feBlend mode="normal" in2="shape" result="effect1_innerShadow_94_738"/>
</filter>
<filter id="filter7_f_94_738" x="36.2866" y="107.318" width="73.0597" height="73.0595" filterUnits="userSpaceOnUse" color-interpolation-filters="sRGB">
<feFlood flood-opacity="0" result="BackgroundImageFix"/>
<feBlend mode="normal" in="SourceGraphic" in2="BackgroundImageFix" result="shape"/>
<feGaussianBlur stdDeviation="2.1832" result="effect1_foregroundBlur_94_738"/>
</filter>
<filter id="filter8_f_94_738" x="160.868" y="71.0986" width="36.8728" height="36.8727" filterUnits="userSpaceOnUse" color-interpolation-filters="sRGB">
<feFlood flood-opacity="0" result="BackgroundImageFix"/>
<feBlend mode="normal" in="SourceGraphic" in2="BackgroundImageFix" result="shape"/>
<feGaussianBlur stdDeviation="1.47074" result="effect1_foregroundBlur_94_738"/>
</filter>
<filter id="filter9_f_94_738" x="86.3504" y="203.465" width="36.8728" height="36.8727" filterUnits="userSpaceOnUse" color-interpolation-filters="sRGB">
<feFlood flood-opacity="0" result="BackgroundImageFix"/>
<feBlend mode="normal" in="SourceGraphic" in2="BackgroundImageFix" result="shape"/>
<feGaussianBlur stdDeviation="1.47074" result="effect1_foregroundBlur_94_738"/>
</filter>
<linearGradient id="paint0_linear_94_738" x1="117.408" y1="85.8055" x2="117.408" y2="260.239" gradientUnits="userSpaceOnUse">
<stop stop-color="#004867" stop-opacity="0"/>
<stop offset="1" stop-color="white"/>
</linearGradient>
<linearGradient id="paint1_linear_94_738" x1="117.408" y1="85.8055" x2="117.408" y2="260.239" gradientUnits="userSpaceOnUse">
<stop stop-color="#004867" stop-opacity="0"/>
<stop offset="1" stop-color="white" stop-opacity="0.15"/>
</linearGradient>
<linearGradient id="paint2_linear_94_738" x1="123.437" y1="198.959" x2="123.437" y2="24.5249" gradientUnits="userSpaceOnUse">
<stop stop-color="#004867" stop-opacity="0"/>
<stop offset="1" stop-color="#7A7C7D"/>
</linearGradient>
<linearGradient id="paint3_linear_94_738" x1="78.1878" y1="30.3148" x2="78.1878" y2="204.749" gradientUnits="userSpaceOnUse">
<stop stop-color="#004867" stop-opacity="0"/>
<stop offset="1" stop-color="#4B4B4B"/>
</linearGradient>
<linearGradient id="paint4_linear_94_738" x1="163.147" y1="30.3148" x2="163.147" y2="204.749" gradientUnits="userSpaceOnUse">
<stop stop-color="#004867" stop-opacity="0"/>
<stop offset="1" stop-color="#1F1F1F"/>
</linearGradient>
<linearGradient id="paint5_linear_94_738" x1="192.072" y1="198.959" x2="192.072" y2="24.5248" gradientUnits="userSpaceOnUse">
<stop stop-color="#004867" stop-opacity="0"/>
<stop offset="1" stop-color="#787878"/>
</linearGradient>
<linearGradient id="paint6_linear_94_738" x1="103.509" y1="183.365" x2="16.7349" y2="114.24" gradientUnits="userSpaceOnUse">
<stop stop-color="#004867" stop-opacity="0"/>
<stop offset="1" stop-color="#D9D9D9"/>
</linearGradient>
</defs>
</svg>
