<svg width="237" height="270" viewBox="0 0 237 270" fill="none" xmlns="http://www.w3.org/2000/svg">
<mask id="mask0_94_767" style="mask-type:alpha" maskUnits="userSpaceOnUse" x="0" y="0" width="237" height="270">
<rect width="237" height="270" fill="#FF74BD"/>
</mask>
<g mask="url(#mask0_94_767)">
<ellipse cx="68.6037" cy="142.777" rx="68.6037" ry="142.777" transform="matrix(0.707107 0.707107 -0.74114 0.671351 175.611 15.5156)" fill="black"/>
<mask id="mask1_94_767" style="mask-type:alpha" maskUnits="userSpaceOnUse" x="-97" y="-58" width="332" height="326">
<path d="M166.815 208.389C108.374 261.328 39.2791 282.524 12.4877 255.733C-14.3037 228.941 -196.748 95.969 -21.8134 -9.38395C184.481 -141.687 197.331 37.2348 224.123 64.0262C250.914 90.8177 225.257 155.451 166.815 208.389Z" fill="black"/>
</mask>
<g mask="url(#mask1_94_767)">
<g opacity="0.75" filter="url(#filter0_f_94_767)">
<g filter="url(#filter1_ii_94_767)">
<rect x="170.484" y="120.96" width="85.2036" height="47.8541" rx="8.50781" transform="rotate(53.5768 170.484 120.96)" fill="#049ADB"/>
<path d="M205.134 167.919C206.819 166.675 208.243 165.112 209.324 163.318C210.406 161.523 211.123 159.534 211.435 157.463C211.748 155.391 211.649 153.279 211.145 151.245C210.641 149.212 209.742 147.298 208.498 145.613C207.254 143.927 205.69 142.503 203.896 141.422C202.102 140.34 200.113 139.623 198.041 139.311C195.97 138.998 193.857 139.097 191.824 139.601C189.791 140.105 187.877 141.005 186.191 142.248L190.927 148.666C191.77 148.044 192.727 147.594 193.743 147.342C194.76 147.09 195.816 147.041 196.852 147.197C197.888 147.353 198.882 147.712 199.779 148.253C200.676 148.793 201.458 149.505 202.08 150.348C202.702 151.191 203.152 152.148 203.404 153.165C203.656 154.181 203.705 155.237 203.549 156.273C203.393 157.309 203.034 158.304 202.493 159.201C201.953 160.098 201.241 160.879 200.398 161.501L205.134 167.919Z" fill="#049ADB"/>
</g>
<g opacity="0.56" filter="url(#filter2_f_94_767)">
<rect x="173.023" y="137.413" width="3.58635" height="32.1264" rx="1.79317" transform="rotate(53.5768 173.023 137.413)" fill="url(#paint0_linear_94_767)"/>
</g>
<g opacity="0.56" filter="url(#filter3_f_94_767)">
<rect x="179.185" y="145.766" width="3.58635" height="32.1264" rx="1.79317" transform="rotate(53.5768 179.185 145.766)" fill="url(#paint1_linear_94_767)"/>
</g>
<g opacity="0.56" filter="url(#filter4_f_94_767)">
<rect x="185.348" y="154.117" width="3.58635" height="32.1264" rx="1.79317" transform="rotate(53.5768 185.348 154.117)" fill="url(#paint2_linear_94_767)"/>
</g>
<g opacity="0.56" filter="url(#filter5_f_94_767)">
<rect x="191.511" y="162.47" width="3.58635" height="32.1264" rx="1.79317" transform="rotate(53.5768 191.511 162.47)" fill="url(#paint3_linear_94_767)"/>
</g>
<g opacity="0.56" filter="url(#filter6_f_94_767)">
<rect x="197.673" y="170.82" width="3.58635" height="32.1264" rx="1.79317" transform="rotate(53.5768 197.673 170.82)" fill="url(#paint4_linear_94_767)"/>
</g>
<g opacity="0.56" filter="url(#filter7_f_94_767)">
<rect x="203.836" y="179.172" width="3.58635" height="32.1264" rx="1.79317" transform="rotate(53.5768 203.836 179.172)" fill="url(#paint5_linear_94_767)"/>
</g>
</g>
<g filter="url(#filter8_ii_94_767)">
<path d="M163.736 24.47C147.123 32.7869 144.24 58.7768 144.875 70.7322L162.322 60.659C162.646 56.4356 161.346 48.9219 170.766 42.7183C182.542 34.9638 184.503 14.0739 163.736 24.47Z" fill="black"/>
</g>
<g filter="url(#filter9_ii_94_767)">
<path d="M74.9093 25.4983C91.5225 33.8152 94.4054 59.8052 93.7703 71.7605L76.323 61.6873C75.9994 57.464 77.2994 49.9502 67.8791 43.7466C56.1038 35.9921 54.1429 15.1022 74.9093 25.4983Z" fill="black"/>
</g>
<g filter="url(#filter10_ii_94_767)">
<path d="M139.546 260.978L151.999 258.77L145.127 200.025C144.202 192.117 145.111 184.103 147.782 176.602L181.128 82.9781C187.935 63.8637 173.645 43.8064 153.356 43.998C137.735 44.1454 124.999 56.5658 124.46 72.1781L121.295 163.896L118.033 71.9365C117.46 55.7965 104.131 43.0523 87.9812 43.2048C67.3955 43.3992 53.2076 63.9175 60.2936 83.2461L94.3249 176.075C97.198 183.912 98.1368 192.326 97.0614 200.604L89.1411 261.571L104.351 261.048L121.377 213.79L139.546 260.978Z" fill="#049ADB"/>
</g>
<g filter="url(#filter11_diiii_94_767)">
<circle cx="121.598" cy="206.078" r="23.2472" transform="rotate(179.459 121.598 206.078)" fill="#049ADB"/>
</g>
<g filter="url(#filter12_ii_94_767)">
<ellipse cx="78.7201" cy="182.885" rx="50.2003" ry="21.8935" transform="rotate(-17.3162 78.7201 182.885)" fill="#049ADB"/>
</g>
<g filter="url(#filter13_i_94_767)">
<path d="M47.5865 140.987C53.2635 154.108 64.2944 160.708 69.8287 164.879C67.4179 164.968 61.3151 166.246 54.4464 162.925C43.7834 157.769 44.894 149.365 47.5865 140.987C45.3181 135.744 43.9045 129.459 44.038 121.872C44.1415 115.992 43.602 110.627 42.6179 105.797C39.2339 102.423 35.4967 99.8128 32.411 98.4734C20.7793 93.4249 10.2889 90.5251 10.6914 85.0781C11.0135 80.7206 20.1272 84.5288 24.6437 86.9776C21.5188 84.0752 16.2111 77.632 19.9797 75.0786C23.8565 72.452 38.0427 83.3435 42.6179 105.797C47.8149 110.979 52.1786 117.963 52.0695 124.913C51.9964 129.566 49.4234 135.271 47.5865 140.987Z" fill="black"/>
</g>
<ellipse cx="77.5884" cy="179.996" rx="22.1147" ry="9.06702" transform="rotate(-17.3162 77.5884 179.996)" fill="black"/>
<g filter="url(#filter14_iiii_94_767)">
<path d="M58.1783 171.716C55.5518 163.292 60.2519 154.334 68.6761 151.707C77.1003 149.081 86.0586 153.781 88.6851 162.205L94.668 181.395L64.1612 190.906L58.1783 171.716Z" fill="#049ADB"/>
</g>
<path d="M78.3773 182.528C68.9925 185.454 65.0645 184.903 61.819 185.143L63.7503 190.725C69.4038 191.239 74.1814 189.874 80.0929 188.031C86.4266 186.056 92.5587 183.435 94.8425 181.101L93.0653 175.401C91.0327 176.807 87.7622 179.602 78.3773 182.528Z" fill="black"/>
<path d="M233.512 97.1586C239.856 108.144 237.05 125.038 234.854 132.112C236.066 131.026 238.766 127.628 239.865 122.721C241.239 116.588 241.204 101.912 239.302 95.9551C237.781 91.1899 243.056 90.0391 245.884 90.0593L239.804 88.1516L244.481 83.9625C238.181 83.784 227.168 86.1732 233.512 97.1586Z" fill="black"/>
<g filter="url(#filter15_f_94_767)">
<circle cx="161.08" cy="254.953" r="0.796576" transform="rotate(38.5768 161.08 254.953)" fill="#D9D9D9"/>
</g>
<g filter="url(#filter16_f_94_767)">
<circle cx="133.803" cy="261.047" r="0.796576" transform="rotate(38.5768 133.803 261.047)" fill="#D9D9D9"/>
</g>
<path d="M129.537 218.995C129.537 222.968 126.315 226.19 122.341 226.19C118.367 226.19 115.146 222.968 115.146 218.995V218.272C115.146 216.599 116.778 215.413 118.369 215.929L121.469 216.936C122.33 217.215 123.26 217.197 124.109 216.884L126.264 216.09C127.851 215.504 129.537 216.679 129.537 218.371V218.995Z" fill="black"/>
<path d="M116.175 195.352C116.175 196.432 115.962 197.501 115.549 198.499C115.135 199.496 114.53 200.403 113.766 201.166C113.002 201.93 112.096 202.536 111.098 202.949C110.1 203.362 109.031 203.575 107.951 203.575L107.951 202.101C108.838 202.101 109.715 201.926 110.534 201.587C111.353 201.248 112.097 200.751 112.724 200.124C113.35 199.497 113.848 198.753 114.187 197.934C114.526 197.116 114.701 196.238 114.701 195.352L116.175 195.352Z" fill="url(#paint6_linear_94_767)"/>
<path d="M127.481 195.352C127.481 196.432 127.694 197.501 128.107 198.499C128.52 199.497 129.126 200.403 129.89 201.167C130.653 201.93 131.56 202.536 132.557 202.949C133.555 203.363 134.624 203.575 135.704 203.575L135.704 202.101C134.818 202.101 133.94 201.927 133.121 201.588C132.303 201.248 131.559 200.751 130.932 200.125C130.305 199.498 129.808 198.754 129.469 197.935C129.13 197.116 128.955 196.238 128.955 195.352L127.481 195.352Z" fill="url(#paint7_linear_94_767)"/>
<path d="M107.856 209.241C107.856 206.257 110.275 203.838 113.258 203.838C116.242 203.838 118.661 206.257 118.661 209.241V211.471C118.661 212.504 117.64 213.227 116.665 212.883L114.243 212.028C113.551 211.784 112.795 211.788 112.105 212.039L109.861 212.857C108.887 213.212 107.856 212.49 107.856 211.453V209.241Z" fill="url(#paint8_linear_94_767)"/>
<mask id="mask2_94_767" style="mask-type:alpha" maskUnits="userSpaceOnUse" x="107" y="203" width="12" height="10">
<path d="M107.856 209.241C107.856 206.257 110.275 203.838 113.258 203.838C116.242 203.838 118.661 206.257 118.661 209.241V211.471C118.661 212.504 117.64 213.227 116.665 212.883L114.243 212.028C113.551 211.784 112.795 211.788 112.105 212.039L109.861 212.857C108.887 213.212 107.856 212.49 107.856 211.453V209.241Z" fill="#D9D9D9"/>
</mask>
<g mask="url(#mask2_94_767)">
<path d="M109.799 210.804C109.799 208.894 111.347 207.345 113.258 207.345C115.168 207.345 116.717 208.894 116.717 210.804V212.232C116.717 212.894 116.063 213.356 115.439 213.136L113.888 212.589C113.445 212.433 112.961 212.435 112.52 212.596L111.083 213.119C110.459 213.347 109.799 212.885 109.799 212.221V210.804Z" fill="black"/>
</g>
<circle cx="113.724" cy="210.896" r="0.730066" transform="rotate(45 113.724 210.896)" fill="#D9D9D9"/>
<path d="M125.16 209.241C125.16 206.257 127.579 203.838 130.563 203.838C133.547 203.838 135.965 206.257 135.965 209.241V211.472C135.965 212.505 134.944 213.228 133.97 212.884L131.547 212.029C130.855 211.785 130.1 211.788 129.41 212.04L127.165 212.857C126.191 213.213 125.16 212.491 125.16 211.454V209.241Z" fill="url(#paint9_linear_94_767)"/>
<mask id="mask3_94_767" style="mask-type:alpha" maskUnits="userSpaceOnUse" x="125" y="203" width="11" height="10">
<path d="M125.16 209.241C125.16 206.257 127.579 203.838 130.563 203.838C133.547 203.838 135.965 206.257 135.965 209.241V211.472C135.965 212.505 134.944 213.228 133.97 212.884L131.547 212.029C130.855 211.785 130.1 211.788 129.41 212.04L127.165 212.857C126.191 213.213 125.16 212.491 125.16 211.454V209.241Z" fill="#D9D9D9"/>
</mask>
<g mask="url(#mask3_94_767)">
<path d="M127.103 210.805C127.103 208.894 128.652 207.346 130.562 207.346C132.472 207.346 134.021 208.894 134.021 210.805V212.233C134.021 212.894 133.367 213.357 132.743 213.137L131.192 212.59C130.749 212.433 130.265 212.436 129.824 212.596L128.387 213.12C127.763 213.347 127.103 212.885 127.103 212.221V210.805Z" fill="black"/>
</g>
<circle cx="131.026" cy="210.897" r="0.730066" transform="rotate(45 131.026 210.897)" fill="#D9D9D9"/>
</g>
</g>
<defs>
<filter id="filter0_f_94_767" x="129.2" y="118.182" width="94.6522" height="102.529" filterUnits="userSpaceOnUse" color-interpolation-filters="sRGB">
<feFlood flood-opacity="0" result="BackgroundImageFix"/>
<feBlend mode="normal" in="SourceGraphic" in2="BackgroundImageFix" result="shape"/>
<feGaussianBlur stdDeviation="3.08372" result="effect1_foregroundBlur_94_767"/>
</filter>
<filter id="filter1_ii_94_767" x="131.467" y="119.962" width="88.6547" height="97.0193" filterUnits="userSpaceOnUse" color-interpolation-filters="sRGB">
<feFlood flood-opacity="0" result="BackgroundImageFix"/>
<feBlend mode="normal" in="SourceGraphic" in2="BackgroundImageFix" result="shape"/>
<feColorMatrix in="SourceAlpha" type="matrix" values="0 0 0 0 0 0 0 0 0 0 0 0 0 0 0 0 0 0 127 0" result="hardAlpha"/>
<feOffset dx="2.43748" dy="2.43748"/>
<feGaussianBlur stdDeviation="1.70624"/>
<feComposite in2="hardAlpha" operator="arithmetic" k2="-1" k3="1"/>
<feColorMatrix type="matrix" values="0 0 0 0 0 0 0 0 0 0 0 0 0 0 0 0 0 0 0.25 0"/>
<feBlend mode="normal" in2="shape" result="effect1_innerShadow_94_767"/>
<feColorMatrix in="SourceAlpha" type="matrix" values="0 0 0 0 0 0 0 0 0 0 0 0 0 0 0 0 0 0 127 0" result="hardAlpha"/>
<feOffset dx="-3.89997" dy="-4.38746"/>
<feGaussianBlur stdDeviation="5.84995"/>
<feComposite in2="hardAlpha" operator="arithmetic" k2="-1" k3="1"/>
<feColorMatrix type="matrix" values="0 0 0 0 0.85098 0 0 0 0 0.85098 0 0 0 0 0.85098 0 0 0 0.79 0"/>
<feBlend mode="normal" in2="effect1_innerShadow_94_767" result="effect2_innerShadow_94_767"/>
</filter>
<filter id="filter2_f_94_767" x="146.911" y="137.152" width="28.5014" height="22.4822" filterUnits="userSpaceOnUse" color-interpolation-filters="sRGB">
<feFlood flood-opacity="0" result="BackgroundImageFix"/>
<feBlend mode="normal" in="SourceGraphic" in2="BackgroundImageFix" result="shape"/>
<feGaussianBlur stdDeviation="0.487496" result="effect1_foregroundBlur_94_767"/>
</filter>
<filter id="filter3_f_94_767" x="153.074" y="145.505" width="28.5014" height="22.4822" filterUnits="userSpaceOnUse" color-interpolation-filters="sRGB">
<feFlood flood-opacity="0" result="BackgroundImageFix"/>
<feBlend mode="normal" in="SourceGraphic" in2="BackgroundImageFix" result="shape"/>
<feGaussianBlur stdDeviation="0.487496" result="effect1_foregroundBlur_94_767"/>
</filter>
<filter id="filter4_f_94_767" x="159.237" y="153.857" width="28.5014" height="22.4822" filterUnits="userSpaceOnUse" color-interpolation-filters="sRGB">
<feFlood flood-opacity="0" result="BackgroundImageFix"/>
<feBlend mode="normal" in="SourceGraphic" in2="BackgroundImageFix" result="shape"/>
<feGaussianBlur stdDeviation="0.487496" result="effect1_foregroundBlur_94_767"/>
</filter>
<filter id="filter5_f_94_767" x="165.399" y="162.21" width="28.5014" height="22.4822" filterUnits="userSpaceOnUse" color-interpolation-filters="sRGB">
<feFlood flood-opacity="0" result="BackgroundImageFix"/>
<feBlend mode="normal" in="SourceGraphic" in2="BackgroundImageFix" result="shape"/>
<feGaussianBlur stdDeviation="0.487496" result="effect1_foregroundBlur_94_767"/>
</filter>
<filter id="filter6_f_94_767" x="171.562" y="170.56" width="28.5014" height="22.4822" filterUnits="userSpaceOnUse" color-interpolation-filters="sRGB">
<feFlood flood-opacity="0" result="BackgroundImageFix"/>
<feBlend mode="normal" in="SourceGraphic" in2="BackgroundImageFix" result="shape"/>
<feGaussianBlur stdDeviation="0.487496" result="effect1_foregroundBlur_94_767"/>
</filter>
<filter id="filter7_f_94_767" x="177.725" y="178.912" width="28.5014" height="22.4822" filterUnits="userSpaceOnUse" color-interpolation-filters="sRGB">
<feFlood flood-opacity="0" result="BackgroundImageFix"/>
<feBlend mode="normal" in="SourceGraphic" in2="BackgroundImageFix" result="shape"/>
<feGaussianBlur stdDeviation="0.487496" result="effect1_foregroundBlur_94_767"/>
</filter>
<filter id="filter8_ii_94_767" x="143.748" y="16.3895" width="35.7813" height="54.8667" filterUnits="userSpaceOnUse" color-interpolation-filters="sRGB">
<feFlood flood-opacity="0" result="BackgroundImageFix"/>
<feBlend mode="normal" in="SourceGraphic" in2="BackgroundImageFix" result="shape"/>
<feColorMatrix in="SourceAlpha" type="matrix" values="0 0 0 0 0 0 0 0 0 0 0 0 0 0 0 0 0 0 127 0" result="hardAlpha"/>
<feOffset dy="-5.7617"/>
<feGaussianBlur stdDeviation="2.61896"/>
<feComposite in2="hardAlpha" operator="arithmetic" k2="-1" k3="1"/>
<feColorMatrix type="matrix" values="0 0 0 0 0.85098 0 0 0 0 0.85098 0 0 0 0 0.85098 0 0 0 1 0"/>
<feBlend mode="normal" in2="shape" result="effect1_innerShadow_94_767"/>
<feColorMatrix in="SourceAlpha" type="matrix" values="0 0 0 0 0 0 0 0 0 0 0 0 0 0 0 0 0 0 127 0" result="hardAlpha"/>
<feOffset dx="-1.04758" dy="0.523791"/>
<feGaussianBlur stdDeviation="2.35706"/>
<feComposite in2="hardAlpha" operator="arithmetic" k2="-1" k3="1"/>
<feColorMatrix type="matrix" values="0 0 0 0 0.0156863 0 0 0 0 0.603922 0 0 0 0 0.858824 0 0 0 1 0"/>
<feBlend mode="normal" in2="effect1_innerShadow_94_767" result="effect2_innerShadow_94_767"/>
</filter>
<filter id="filter9_ii_94_767" x="56.4973" y="18.9892" width="37.3526" height="53.2953" filterUnits="userSpaceOnUse" color-interpolation-filters="sRGB">
<feFlood flood-opacity="0" result="BackgroundImageFix"/>
<feBlend mode="normal" in="SourceGraphic" in2="BackgroundImageFix" result="shape"/>
<feColorMatrix in="SourceAlpha" type="matrix" values="0 0 0 0 0 0 0 0 0 0 0 0 0 0 0 0 0 0 127 0" result="hardAlpha"/>
<feOffset dy="-3.66654"/>
<feGaussianBlur stdDeviation="2.61895"/>
<feComposite in2="hardAlpha" operator="arithmetic" k2="-1" k3="1"/>
<feColorMatrix type="matrix" values="0 0 0 0 0.85098 0 0 0 0 0.85098 0 0 0 0 0.85098 0 0 0 1 0"/>
<feBlend mode="normal" in2="shape" result="effect1_innerShadow_94_767"/>
<feColorMatrix in="SourceAlpha" type="matrix" values="0 0 0 0 0 0 0 0 0 0 0 0 0 0 0 0 0 0 127 0" result="hardAlpha"/>
<feOffset dx="-2.61895" dy="0.523791"/>
<feGaussianBlur stdDeviation="2.35706"/>
<feComposite in2="hardAlpha" operator="arithmetic" k2="-1" k3="1"/>
<feColorMatrix type="matrix" values="0 0 0 0 0.0156863 0 0 0 0 0.603922 0 0 0 0 0.858824 0 0 0 1 0"/>
<feBlend mode="normal" in2="effect1_innerShadow_94_767" result="effect2_innerShadow_94_767"/>
</filter>
<filter id="filter10_ii_94_767" x="58.4479" y="36.9181" width="124.397" height="241.1" filterUnits="userSpaceOnUse" color-interpolation-filters="sRGB">
<feFlood flood-opacity="0" result="BackgroundImageFix"/>
<feBlend mode="normal" in="SourceGraphic" in2="BackgroundImageFix" result="shape"/>
<feColorMatrix in="SourceAlpha" type="matrix" values="0 0 0 0 0 0 0 0 0 0 0 0 0 0 0 0 0 0 127 0" result="hardAlpha"/>
<feOffset dy="-6.28549"/>
<feGaussianBlur stdDeviation="4.71412"/>
<feComposite in2="hardAlpha" operator="arithmetic" k2="-1" k3="1"/>
<feColorMatrix type="matrix" values="0 0 0 0 0.85098 0 0 0 0 0.85098 0 0 0 0 0.85098 0 0 0 1 0"/>
<feBlend mode="normal" in2="shape" result="effect1_innerShadow_94_767"/>
<feColorMatrix in="SourceAlpha" type="matrix" values="0 0 0 0 0 0 0 0 0 0 0 0 0 0 0 0 0 0 127 0" result="hardAlpha"/>
<feOffset dy="16.4465"/>
<feGaussianBlur stdDeviation="9.76512"/>
<feComposite in2="hardAlpha" operator="arithmetic" k2="-1" k3="1"/>
<feColorMatrix type="matrix" values="0 0 0 0 0 0 0 0 0 0 0 0 0 0 0 0 0 0 0.25 0"/>
<feBlend mode="normal" in2="effect1_innerShadow_94_767" result="effect2_innerShadow_94_767"/>
</filter>
<filter id="filter11_diiii_94_767" x="54.8763" y="118.798" width="133.444" height="133.444" filterUnits="userSpaceOnUse" color-interpolation-filters="sRGB">
<feFlood flood-opacity="0" result="BackgroundImageFix"/>
<feColorMatrix in="SourceAlpha" type="matrix" values="0 0 0 0 0 0 0 0 0 0 0 0 0 0 0 0 0 0 127 0" result="hardAlpha"/>
<feMorphology radius="14.1424" operator="dilate" in="SourceAlpha" result="effect1_dropShadow_94_767"/>
<feOffset dy="-20.5581"/>
<feGaussianBlur stdDeviation="14.6661"/>
<feComposite in2="hardAlpha" operator="out"/>
<feColorMatrix type="matrix" values="0 0 0 0 0 0 0 0 0 0 0 0 0 0 0 0 0 0 0.26 0"/>
<feBlend mode="normal" in2="BackgroundImageFix" result="effect1_dropShadow_94_767"/>
<feBlend mode="normal" in="SourceGraphic" in2="effect1_dropShadow_94_767" result="shape"/>
<feColorMatrix in="SourceAlpha" type="matrix" values="0 0 0 0 0 0 0 0 0 0 0 0 0 0 0 0 0 0 127 0" result="hardAlpha"/>
<feOffset dy="2.09516"/>
<feGaussianBlur stdDeviation="2.61896"/>
<feComposite in2="hardAlpha" operator="arithmetic" k2="-1" k3="1"/>
<feColorMatrix type="matrix" values="0 0 0 0 0 0 0 0 0 0 0 0 0 0 0 0 0 0 0.44 0"/>
<feBlend mode="normal" in2="shape" result="effect2_innerShadow_94_767"/>
<feColorMatrix in="SourceAlpha" type="matrix" values="0 0 0 0 0 0 0 0 0 0 0 0 0 0 0 0 0 0 127 0" result="hardAlpha"/>
<feOffset dy="-6.28549"/>
<feGaussianBlur stdDeviation="5.7617"/>
<feComposite in2="hardAlpha" operator="arithmetic" k2="-1" k3="1"/>
<feColorMatrix type="matrix" values="0 0 0 0 0.85098 0 0 0 0 0.85098 0 0 0 0 0.85098 0 0 0 0.91 0"/>
<feBlend mode="normal" in2="effect2_innerShadow_94_767" result="effect3_innerShadow_94_767"/>
<feColorMatrix in="SourceAlpha" type="matrix" values="0 0 0 0 0 0 0 0 0 0 0 0 0 0 0 0 0 0 127 0" result="hardAlpha"/>
<feOffset dy="3.08372"/>
<feGaussianBlur stdDeviation="1.04758"/>
<feComposite in2="hardAlpha" operator="arithmetic" k2="-1" k3="1"/>
<feColorMatrix type="matrix" values="0 0 0 0 0.0156863 0 0 0 0 0.603922 0 0 0 0 0.858824 0 0 0 0.69 0"/>
<feBlend mode="normal" in2="effect3_innerShadow_94_767" result="effect4_innerShadow_94_767"/>
<feColorMatrix in="SourceAlpha" type="matrix" values="0 0 0 0 0 0 0 0 0 0 0 0 0 0 0 0 0 0 127 0" result="hardAlpha"/>
<feOffset dy="7.19535"/>
<feGaussianBlur stdDeviation="3.92843"/>
<feComposite in2="hardAlpha" operator="arithmetic" k2="-1" k3="1"/>
<feColorMatrix type="matrix" values="0 0 0 0 0 0 0 0 0 0.351744 0 0 0 0 0.504167 0 0 0 1 0"/>
<feBlend mode="normal" in2="effect4_innerShadow_94_767" result="effect5_innerShadow_94_767"/>
</filter>
<filter id="filter12_ii_94_767" x="29.8399" y="151.598" width="97.252" height="62.5735" filterUnits="userSpaceOnUse" color-interpolation-filters="sRGB">
<feFlood flood-opacity="0" result="BackgroundImageFix"/>
<feBlend mode="normal" in="SourceGraphic" in2="BackgroundImageFix" result="shape"/>
<feColorMatrix in="SourceAlpha" type="matrix" values="0 0 0 0 0 0 0 0 0 0 0 0 0 0 0 0 0 0 127 0" result="hardAlpha"/>
<feOffset dx="-0.508359" dy="-5.59195"/>
<feGaussianBlur stdDeviation="4.82941"/>
<feComposite in2="hardAlpha" operator="arithmetic" k2="-1" k3="1"/>
<feColorMatrix type="matrix" values="0 0 0 0 0.85098 0 0 0 0 0.85098 0 0 0 0 0.85098 0 0 0 0.69 0"/>
<feBlend mode="normal" in2="shape" result="effect1_innerShadow_94_767"/>
<feColorMatrix in="SourceAlpha" type="matrix" values="0 0 0 0 0 0 0 0 0 0 0 0 0 0 0 0 0 0 127 0" result="hardAlpha"/>
<feOffset dx="-0.508359" dy="5.59195"/>
<feGaussianBlur stdDeviation="7.37121"/>
<feComposite in2="hardAlpha" operator="arithmetic" k2="-1" k3="1"/>
<feColorMatrix type="matrix" values="0 0 0 0 0 0 0 0 0 0 0 0 0 0 0 0 0 0 0.23 0"/>
<feBlend mode="normal" in2="effect1_innerShadow_94_767" result="effect2_innerShadow_94_767"/>
</filter>
<filter id="filter13_i_94_767" x="10.6802" y="73.4875" width="59.1485" height="91.7068" filterUnits="userSpaceOnUse" color-interpolation-filters="sRGB">
<feFlood flood-opacity="0" result="BackgroundImageFix"/>
<feBlend mode="normal" in="SourceGraphic" in2="BackgroundImageFix" result="shape"/>
<feColorMatrix in="SourceAlpha" type="matrix" values="0 0 0 0 0 0 0 0 0 0 0 0 0 0 0 0 0 0 127 0" result="hardAlpha"/>
<feOffset dy="-1.20631"/>
<feGaussianBlur stdDeviation="1.20631"/>
<feComposite in2="hardAlpha" operator="arithmetic" k2="-1" k3="1"/>
<feColorMatrix type="matrix" values="0 0 0 0 0.85098 0 0 0 0 0.85098 0 0 0 0 0.85098 0 0 0 0.5 0"/>
<feBlend mode="normal" in2="shape" result="effect1_innerShadow_94_767"/>
</filter>
<filter id="filter14_iiii_94_767" x="56.4331" y="146.912" width="39.2515" height="49.5861" filterUnits="userSpaceOnUse" color-interpolation-filters="sRGB">
<feFlood flood-opacity="0" result="BackgroundImageFix"/>
<feBlend mode="normal" in="SourceGraphic" in2="BackgroundImageFix" result="shape"/>
<feColorMatrix in="SourceAlpha" type="matrix" values="0 0 0 0 0 0 0 0 0 0 0 0 0 0 0 0 0 0 127 0" result="hardAlpha"/>
<feOffset dx="-1.01672" dy="-4.06687"/>
<feGaussianBlur stdDeviation="5.08359"/>
<feComposite in2="hardAlpha" operator="arithmetic" k2="-1" k3="1"/>
<feColorMatrix type="matrix" values="0 0 0 0 0.85098 0 0 0 0 0.85098 0 0 0 0 0.85098 0 0 0 0.93 0"/>
<feBlend mode="normal" in2="shape" result="effect1_innerShadow_94_767"/>
<feColorMatrix in="SourceAlpha" type="matrix" values="0 0 0 0 0 0 0 0 0 0 0 0 0 0 0 0 0 0 127 0" result="hardAlpha"/>
<feOffset dx="-0.508359" dy="6.60867"/>
<feGaussianBlur stdDeviation="2.79597"/>
<feComposite in2="hardAlpha" operator="arithmetic" k2="-1" k3="1"/>
<feColorMatrix type="matrix" values="0 0 0 0 0 0 0 0 0 0 0 0 0 0 0 0 0 0 0.25 0"/>
<feBlend mode="normal" in2="effect1_innerShadow_94_767" result="effect2_innerShadow_94_767"/>
<feColorMatrix in="SourceAlpha" type="matrix" values="0 0 0 0 0 0 0 0 0 0 0 0 0 0 0 0 0 0 127 0" result="hardAlpha"/>
<feOffset dx="1.01672" dy="3.55851"/>
<feGaussianBlur stdDeviation="1.2709"/>
<feComposite in2="hardAlpha" operator="arithmetic" k2="-1" k3="1"/>
<feColorMatrix type="matrix" values="0 0 0 0 0 0 0 0 0 0 0 0 0 0 0 0 0 0 0.25 0"/>
<feBlend mode="normal" in2="effect2_innerShadow_94_767" result="effect3_innerShadow_94_767"/>
<feColorMatrix in="SourceAlpha" type="matrix" values="0 0 0 0 0 0 0 0 0 0 0 0 0 0 0 0 0 0 127 0" result="hardAlpha"/>
<feOffset dx="-0.508359" dy="1.01672"/>
<feGaussianBlur stdDeviation="1.01672"/>
<feComposite in2="hardAlpha" operator="arithmetic" k2="-1" k3="1"/>
<feColorMatrix type="matrix" values="0 0 0 0 0.0156863 0 0 0 0 0.603922 0 0 0 0 0.858824 0 0 0 0.85 0"/>
<feBlend mode="normal" in2="effect3_innerShadow_94_767" result="effect4_innerShadow_94_767"/>
</filter>
<filter id="filter15_f_94_767" x="159.76" y="253.632" width="2.6408" height="2.64084" filterUnits="userSpaceOnUse" color-interpolation-filters="sRGB">
<feFlood flood-opacity="0" result="BackgroundImageFix"/>
<feBlend mode="normal" in="SourceGraphic" in2="BackgroundImageFix" result="shape"/>
<feGaussianBlur stdDeviation="0.261896" result="effect1_foregroundBlur_94_767"/>
</filter>
<filter id="filter16_f_94_767" x="132.483" y="259.727" width="2.6408" height="2.64084" filterUnits="userSpaceOnUse" color-interpolation-filters="sRGB">
<feFlood flood-opacity="0" result="BackgroundImageFix"/>
<feBlend mode="normal" in="SourceGraphic" in2="BackgroundImageFix" result="shape"/>
<feGaussianBlur stdDeviation="0.261896" result="effect1_foregroundBlur_94_767"/>
</filter>
<linearGradient id="paint0_linear_94_767" x1="174.816" y1="137.413" x2="174.816" y2="169.54" gradientUnits="userSpaceOnUse">
<stop stop-opacity="0.24"/>
<stop offset="1" stop-color="#D9D9D9" stop-opacity="0"/>
</linearGradient>
<linearGradient id="paint1_linear_94_767" x1="180.978" y1="145.766" x2="180.978" y2="177.892" gradientUnits="userSpaceOnUse">
<stop stop-opacity="0.24"/>
<stop offset="1" stop-color="#D9D9D9" stop-opacity="0"/>
</linearGradient>
<linearGradient id="paint2_linear_94_767" x1="187.142" y1="154.117" x2="187.142" y2="186.244" gradientUnits="userSpaceOnUse">
<stop stop-opacity="0.24"/>
<stop offset="1" stop-color="#D9D9D9" stop-opacity="0"/>
</linearGradient>
<linearGradient id="paint3_linear_94_767" x1="193.304" y1="162.47" x2="193.304" y2="194.597" gradientUnits="userSpaceOnUse">
<stop stop-opacity="0.24"/>
<stop offset="1" stop-color="#D9D9D9" stop-opacity="0"/>
</linearGradient>
<linearGradient id="paint4_linear_94_767" x1="199.466" y1="170.82" x2="199.466" y2="202.947" gradientUnits="userSpaceOnUse">
<stop stop-opacity="0.24"/>
<stop offset="1" stop-color="#D9D9D9" stop-opacity="0"/>
</linearGradient>
<linearGradient id="paint5_linear_94_767" x1="205.63" y1="179.172" x2="205.63" y2="211.299" gradientUnits="userSpaceOnUse">
<stop stop-opacity="0.24"/>
<stop offset="1" stop-color="#D9D9D9" stop-opacity="0"/>
</linearGradient>
<linearGradient id="paint6_linear_94_767" x1="114.177" y1="194.996" x2="108.571" y2="205.527" gradientUnits="userSpaceOnUse">
<stop/>
<stop offset="1" stop-opacity="0"/>
</linearGradient>
<linearGradient id="paint7_linear_94_767" x1="129.479" y1="194.996" x2="135.085" y2="205.528" gradientUnits="userSpaceOnUse">
<stop/>
<stop offset="1" stop-opacity="0"/>
</linearGradient>
<linearGradient id="paint8_linear_94_767" x1="113.258" y1="203.838" x2="113.258" y2="213.588" gradientUnits="userSpaceOnUse">
<stop stop-color="#D9D9D9" stop-opacity="0"/>
<stop offset="0.588542" stop-color="#D9D9D9"/>
</linearGradient>
<linearGradient id="paint9_linear_94_767" x1="130.563" y1="203.838" x2="130.563" y2="213.588" gradientUnits="userSpaceOnUse">
<stop stop-color="#D9D9D9" stop-opacity="0"/>
<stop offset="0.588542" stop-color="#D9D9D9"/>
</linearGradient>
</defs>
</svg>
